<svg height="3966" width="720" xmlns="http://www.w3.org/2000/svg">
<rect height="3966" fill="#555" width="720"></rect>
<text fill="#7f7" font-family="Courier New" font-size="12" xml:space="preserve">
<tspan x="10" y="26">30 megabytes installed</tspan>
<tspan x="10" y="42"></tspan>
<tspan x="10" y="58">node_modules</tspan>
<tspan x="10" y="74">└─┬ lerna@2.0.0-rc.2 </tspan>
<tspan x="10" y="90">  ├── async@1.5.2 </tspan>
<tspan x="10" y="106">  ├─┬ chalk@1.1.3 </tspan>
<tspan x="10" y="122">  │ ├── ansi-styles@2.2.1 </tspan>
<tspan x="10" y="138">  │ ├── escape-string-regexp@1.0.5 </tspan>
<tspan x="10" y="154">  │ ├─┬ has-ansi@2.0.0 </tspan>
<tspan x="10" y="170">  │ │ └── ansi-regex@2.1.1 </tspan>
<tspan x="10" y="186">  │ ├── strip-ansi@3.0.1 </tspan>
<tspan x="10" y="202">  │ └── supports-color@2.0.0 </tspan>
<tspan x="10" y="218">  ├─┬ cmd-shim@2.0.2 </tspan>
<tspan x="10" y="234">  │ └─┬ mkdirp@0.5.1 </tspan>
<tspan x="10" y="250">  │   └── minimist@0.0.8 </tspan>
<tspan x="10" y="266">  ├─┬ columnify@1.5.4 </tspan>
<tspan x="10" y="282">  │ └─┬ wcwidth@1.0.1 </tspan>
<tspan x="10" y="298">  │   └─┬ defaults@1.0.3 </tspan>
<tspan x="10" y="314">  │     └── clone@1.0.2 </tspan>
<tspan x="10" y="330">  ├── command-join@2.0.0 </tspan>
<tspan x="10" y="346">  ├─┬ conventional-changelog-cli@1.3.1 </tspan>
<tspan x="10" y="362">  │ ├── add-stream@1.0.0 </tspan>
<tspan x="10" y="378">  │ ├─┬ conventional-changelog@1.1.3 </tspan>
<tspan x="10" y="394">  │ │ ├─┬ conventional-changelog-angular@1.3.3 </tspan>
<tspan x="10" y="410">  │ │ │ ├─┬ compare-func@1.3.2 </tspan>
<tspan x="10" y="426">  │ │ │ │ ├── array-ify@1.0.0 </tspan>
<tspan x="10" y="442">  │ │ │ │ └─┬ dot-prop@3.0.0 </tspan>
<tspan x="10" y="458">  │ │ │ │   └── is-obj@1.0.1 </tspan>
<tspan x="10" y="474">  │ │ │ ├── github-url-from-git@1.5.0 </tspan>
<tspan x="10" y="490">  │ │ │ └── q@1.5.0 </tspan>
<tspan x="10" y="506">  │ │ ├── conventional-changelog-atom@0.1.0 </tspan>
<tspan x="10" y="522">  │ │ ├── conventional-changelog-codemirror@0.1.0 </tspan>
<tspan x="10" y="538">  │ │ ├─┬ conventional-changelog-core@1.8.0 </tspan>
<tspan x="10" y="554">  │ │ │ ├─┬ conventional-changelog-writer@1.4.1 </tspan>
<tspan x="10" y="570">  │ │ │ │ ├─┬ handlebars@4.0.6 </tspan>
<tspan x="10" y="586">  │ │ │ │ │ ├─┬ optimist@0.6.1 </tspan>
<tspan x="10" y="602">  │ │ │ │ │ │ └── wordwrap@0.0.3 </tspan>
<tspan x="10" y="618">  │ │ │ │ │ ├─┬ source-map@0.4.4 </tspan>
<tspan x="10" y="634">  │ │ │ │ │ │ └── amdefine@1.0.1 </tspan>
<tspan x="10" y="650">  │ │ │ │ │ └─┬ uglify-js@2.8.22 </tspan>
<tspan x="10" y="666">  │ │ │ │ │   ├── source-map@0.5.6 </tspan>
<tspan x="10" y="682">  │ │ │ │ │   ├── uglify-to-browserify@1.0.2 </tspan>
<tspan x="10" y="698">  │ │ │ │ │   └─┬ yargs@3.10.0 </tspan>
<tspan x="10" y="714">  │ │ │ │ │     ├── camelcase@1.2.1 </tspan>
<tspan x="10" y="730">  │ │ │ │ │     ├─┬ cliui@2.1.0 </tspan>
<tspan x="10" y="746">  │ │ │ │ │     │ ├─┬ center-align@0.1.3 </tspan>
<tspan x="10" y="762">  │ │ │ │ │     │ │ ├─┬ align-text@0.1.4 </tspan>
<tspan x="10" y="778">  │ │ │ │ │     │ │ │ ├─┬ kind-of@3.1.0 </tspan>
<tspan x="10" y="794">  │ │ │ │ │     │ │ │ │ └── is-buffer@1.1.5 </tspan>
<tspan x="10" y="810">  │ │ │ │ │     │ │ │ ├── longest@1.0.1 </tspan>
<tspan x="10" y="826">  │ │ │ │ │     │ │ │ └── repeat-string@1.6.1 </tspan>
<tspan x="10" y="842">  │ │ │ │ │     │ │ └── lazy-cache@1.0.4 </tspan>
<tspan x="10" y="858">  │ │ │ │ │     │ ├── right-align@0.1.3 </tspan>
<tspan x="10" y="874">  │ │ │ │ │     │ └── wordwrap@0.0.2 </tspan>
<tspan x="10" y="890">  │ │ │ │ │     └── window-size@0.1.0 </tspan>
<tspan x="10" y="906">  │ │ │ │ ├── json-stringify-safe@5.0.1 </tspan>
<tspan x="10" y="922">  │ │ │ │ └── split@1.0.0 </tspan>
<tspan x="10" y="938">  │ │ │ ├─┬ dateformat@1.0.12 </tspan>
<tspan x="10" y="954">  │ │ │ │ └── get-stdin@4.0.1 </tspan>
<tspan x="10" y="970">  │ │ │ ├─┬ get-pkg-repo@1.3.0 </tspan>
<tspan x="10" y="986">  │ │ │ │ └── parse-github-repo-url@1.4.0 </tspan>
<tspan x="10" y="1002">  │ │ │ ├─┬ git-remote-origin-url@2.0.0 </tspan>
<tspan x="10" y="1018">  │ │ │ │ └─┬ gitconfiglocal@1.0.0 </tspan>
<tspan x="10" y="1034">  │ │ │ │   └── ini@1.3.4 </tspan>
<tspan x="10" y="1050">  │ │ │ └─┬ read-pkg@1.1.0 </tspan>
<tspan x="10" y="1066">  │ │ │   └── load-json-file@1.1.0 </tspan>
<tspan x="10" y="1082">  │ │ ├── conventional-changelog-ember@0.2.5 </tspan>
<tspan x="10" y="1098">  │ │ ├── conventional-changelog-eslint@0.1.0 </tspan>
<tspan x="10" y="1114">  │ │ ├── conventional-changelog-express@0.1.0 </tspan>
<tspan x="10" y="1130">  │ │ ├── conventional-changelog-jquery@0.1.0 </tspan>
<tspan x="10" y="1146">  │ │ ├── conventional-changelog-jscs@0.1.0 </tspan>
<tspan x="10" y="1162">  │ │ └── conventional-changelog-jshint@0.1.0 </tspan>
<tspan x="10" y="1178">  │ ├─┬ meow@3.7.0 </tspan>
<tspan x="10" y="1194">  │ │ ├─┬ camelcase-keys@2.1.0 </tspan>
<tspan x="10" y="1210">  │ │ │ └── camelcase@2.1.1 </tspan>
<tspan x="10" y="1226">  │ │ ├─┬ loud-rejection@1.6.0 </tspan>
<tspan x="10" y="1242">  │ │ │ └─┬ currently-unhandled@0.4.1 </tspan>
<tspan x="10" y="1258">  │ │ │   └── array-find-index@1.0.2 </tspan>
<tspan x="10" y="1274">  │ │ ├── map-obj@1.0.1 </tspan>
<tspan x="10" y="1290">  │ │ ├── minimist@1.2.0 </tspan>
<tspan x="10" y="1306">  │ │ ├─┬ redent@1.0.0 </tspan>
<tspan x="10" y="1322">  │ │ │ ├─┬ indent-string@2.1.0 </tspan>
<tspan x="10" y="1338">  │ │ │ │ └─┬ repeating@2.0.1 </tspan>
<tspan x="10" y="1354">  │ │ │ │   └── is-finite@1.0.2 </tspan>
<tspan x="10" y="1370">  │ │ │ └── strip-indent@1.0.1 </tspan>
<tspan x="10" y="1386">  │ │ └── trim-newlines@1.0.0 </tspan>
<tspan x="10" y="1402">  │ └─┬ tempfile@1.1.1 </tspan>
<tspan x="10" y="1418">  │   ├── os-tmpdir@1.0.2 </tspan>
<tspan x="10" y="1434">  │   └── uuid@2.0.3 </tspan>
<tspan x="10" y="1450">  ├─┬ conventional-recommended-bump@1.0.0 </tspan>
<tspan x="10" y="1466">  │ ├─┬ concat-stream@1.6.0 </tspan>
<tspan x="10" y="1482">  │ │ ├─┬ readable-stream@2.2.9 </tspan>
<tspan x="10" y="1498">  │ │ │ ├── buffer-shims@1.0.0 </tspan>
<tspan x="10" y="1514">  │ │ │ ├── core-util-is@1.0.2 </tspan>
<tspan x="10" y="1530">  │ │ │ ├── isarray@1.0.0 </tspan>
<tspan x="10" y="1546">  │ │ │ ├── process-nextick-args@1.0.7 </tspan>
<tspan x="10" y="1562">  │ │ │ ├── string_decoder@1.0.0 </tspan>
<tspan x="10" y="1578">  │ │ │ └── util-deprecate@1.0.2 </tspan>
<tspan x="10" y="1594">  │ │ └── typedarray@0.0.6 </tspan>
<tspan x="10" y="1610">  │ ├─┬ conventional-commits-filter@1.0.0 </tspan>
<tspan x="10" y="1626">  │ │ ├── is-subset@0.1.1 </tspan>
<tspan x="10" y="1642">  │ │ └── modify-values@1.0.0 </tspan>
<tspan x="10" y="1658">  │ ├─┬ conventional-commits-parser@1.3.0 </tspan>
<tspan x="10" y="1674">  │ │ ├─┬ is-text-path@1.0.1 </tspan>
<tspan x="10" y="1690">  │ │ │ └── text-extensions@1.4.0 </tspan>
<tspan x="10" y="1706">  │ │ ├─┬ JSONStream@1.3.1 </tspan>
<tspan x="10" y="1722">  │ │ │ └── jsonparse@1.3.0 </tspan>
<tspan x="10" y="1738">  │ │ ├── split2@2.1.1 </tspan>
<tspan x="10" y="1754">  │ │ ├─┬ through2@2.0.3 </tspan>
<tspan x="10" y="1770">  │ │ │ └── xtend@4.0.1 </tspan>
<tspan x="10" y="1786">  │ │ └── trim-off-newlines@1.0.1 </tspan>
<tspan x="10" y="1802">  │ ├─┬ git-raw-commits@1.2.0 </tspan>
<tspan x="10" y="1818">  │ │ ├─┬ dargs@4.1.0 </tspan>
<tspan x="10" y="1834">  │ │ │ └── number-is-nan@1.0.1 </tspan>
<tspan x="10" y="1850">  │ │ └─┬ lodash.template@4.4.0 </tspan>
<tspan x="10" y="1866">  │ │   ├── lodash._reinterpolate@3.0.0 </tspan>
<tspan x="10" y="1882">  │ │   └── lodash.templatesettings@4.1.0 </tspan>
<tspan x="10" y="1898">  │ ├── git-semver-tags@1.2.0 </tspan>
<tspan x="10" y="1914">  │ └── object-assign@4.1.1 </tspan>
<tspan x="10" y="1930">  ├─┬ cross-spawn@4.0.2 </tspan>
<tspan x="10" y="1946">  │ ├─┬ lru-cache@4.0.2 </tspan>
<tspan x="10" y="1962">  │ │ ├── pseudomap@1.0.2 </tspan>
<tspan x="10" y="1978">  │ │ └── yallist@2.1.2 </tspan>
<tspan x="10" y="1994">  │ └─┬ which@1.2.14 </tspan>
<tspan x="10" y="2010">  │   └── isexe@2.0.0 </tspan>
<tspan x="10" y="2026">  ├── dedent@0.7.0 </tspan>
<tspan x="10" y="2042">  ├─┬ execa@0.6.3 </tspan>
<tspan x="10" y="2058">  │ ├─┬ cross-spawn@5.1.0 </tspan>
<tspan x="10" y="2074">  │ │ └─┬ shebang-command@1.2.0 </tspan>
<tspan x="10" y="2090">  │ │   └── shebang-regex@1.0.0 </tspan>
<tspan x="10" y="2106">  │ ├── get-stream@3.0.0 </tspan>
<tspan x="10" y="2122">  │ ├── is-stream@1.1.0 </tspan>
<tspan x="10" y="2138">  │ ├─┬ npm-run-path@2.0.2 </tspan>
<tspan x="10" y="2154">  │ │ └── path-key@2.0.1 </tspan>
<tspan x="10" y="2170">  │ └── strip-eof@1.0.0 </tspan>
<tspan x="10" y="2186">  ├─┬ find-up@2.1.0 </tspan>
<tspan x="10" y="2202">  │ └─┬ locate-path@2.0.0 </tspan>
<tspan x="10" y="2218">  │   └─┬ p-locate@2.0.0 </tspan>
<tspan x="10" y="2234">  │     └── p-limit@1.1.0 </tspan>
<tspan x="10" y="2250">  ├─┬ fs-promise@2.0.2 </tspan>
<tspan x="10" y="2266">  │ ├── any-promise@1.3.0 </tspan>
<tspan x="10" y="2282">  │ ├─┬ fs-extra@2.1.2 </tspan>
<tspan x="10" y="2298">  │ │ └── jsonfile@2.4.0 </tspan>
<tspan x="10" y="2314">  │ ├── mz@2.6.0 </tspan>
<tspan x="10" y="2330">  │ └─┬ thenify-all@1.6.0 </tspan>
<tspan x="10" y="2346">  │   └── thenify@3.2.1 </tspan>
<tspan x="10" y="2362">  ├─┬ glob@7.1.1 </tspan>
<tspan x="10" y="2378">  │ ├── fs.realpath@1.0.0 </tspan>
<tspan x="10" y="2394">  │ ├─┬ inflight@1.0.6 </tspan>
<tspan x="10" y="2410">  │ │ └── wrappy@1.0.2 </tspan>
<tspan x="10" y="2426">  │ ├── inherits@2.0.3 </tspan>
<tspan x="10" y="2442">  │ ├── once@1.4.0 </tspan>
<tspan x="10" y="2458">  │ └── path-is-absolute@1.0.1 </tspan>
<tspan x="10" y="2474">  ├── graceful-fs@4.1.11 </tspan>
<tspan x="10" y="2490">  ├─┬ inquirer@3.0.6 </tspan>
<tspan x="10" y="2506">  │ ├── ansi-escapes@1.4.0 </tspan>
<tspan x="10" y="2522">  │ ├─┬ cli-cursor@2.1.0 </tspan>
<tspan x="10" y="2538">  │ │ └─┬ restore-cursor@2.0.0 </tspan>
<tspan x="10" y="2554">  │ │   └─┬ onetime@2.0.1 </tspan>
<tspan x="10" y="2570">  │ │     └── mimic-fn@1.1.0 </tspan>
<tspan x="10" y="2586">  │ ├── cli-width@2.1.0 </tspan>
<tspan x="10" y="2602">  │ ├─┬ external-editor@2.0.1 </tspan>
<tspan x="10" y="2618">  │ │ └── tmp@0.0.31 </tspan>
<tspan x="10" y="2634">  │ ├── figures@2.0.0 </tspan>
<tspan x="10" y="2650">  │ ├── mute-stream@0.0.7 </tspan>
<tspan x="10" y="2666">  │ ├─┬ run-async@2.3.0 </tspan>
<tspan x="10" y="2682">  │ │ └── is-promise@2.1.0 </tspan>
<tspan x="10" y="2698">  │ ├── rx@4.1.0 </tspan>
<tspan x="10" y="2714">  │ ├─┬ string-width@2.0.0 </tspan>
<tspan x="10" y="2730">  │ │ └── is-fullwidth-code-point@2.0.0 </tspan>
<tspan x="10" y="2746">  │ └── through@2.3.8 </tspan>
<tspan x="10" y="2762">  ├─┬ load-json-file@2.0.0 </tspan>
<tspan x="10" y="2778">  │ ├─┬ parse-json@2.2.0 </tspan>
<tspan x="10" y="2794">  │ │ └─┬ error-ex@1.3.1 </tspan>
<tspan x="10" y="2810">  │ │   └── is-arrayish@0.2.1 </tspan>
<tspan x="10" y="2826">  │ ├── pify@2.3.0 </tspan>
<tspan x="10" y="2842">  │ └── strip-bom@3.0.0 </tspan>
<tspan x="10" y="2858">  ├── lodash@4.17.4 </tspan>
<tspan x="10" y="2874">  ├─┬ minimatch@3.0.3 </tspan>
<tspan x="10" y="2890">  │ └─┬ brace-expansion@1.1.7 </tspan>
<tspan x="10" y="2906">  │   ├── balanced-match@0.4.2 </tspan>
<tspan x="10" y="2922">  │   └── concat-map@0.0.1 </tspan>
<tspan x="10" y="2938">  ├── p-finally@1.0.0 </tspan>
<tspan x="10" y="2954">  ├── path-exists@3.0.0 </tspan>
<tspan x="10" y="2970">  ├── progress@2.0.0 </tspan>
<tspan x="10" y="2986">  ├── read-cmd-shim@1.0.1 </tspan>
<tspan x="10" y="3002">  ├─┬ read-pkg@2.0.0 </tspan>
<tspan x="10" y="3018">  │ ├─┬ normalize-package-data@2.3.6 </tspan>
<tspan x="10" y="3034">  │ │ ├── hosted-git-info@2.4.2 </tspan>
<tspan x="10" y="3050">  │ │ ├─┬ is-builtin-module@1.0.0 </tspan>
<tspan x="10" y="3066">  │ │ │ └── builtin-modules@1.1.1 </tspan>
<tspan x="10" y="3082">  │ │ └─┬ validate-npm-package-license@3.0.1 </tspan>
<tspan x="10" y="3098">  │ │   ├─┬ spdx-correct@1.0.2 </tspan>
<tspan x="10" y="3114">  │ │   │ └── spdx-license-ids@1.2.2 </tspan>
<tspan x="10" y="3130">  │ │   └── spdx-expression-parse@1.0.4 </tspan>
<tspan x="10" y="3146">  │ └── path-type@2.0.0 </tspan>
<tspan x="10" y="3162">  ├── rimraf@2.6.1 </tspan>
<tspan x="10" y="3178">  ├── safe-buffer@5.0.1 </tspan>
<tspan x="10" y="3194">  ├── semver@5.3.0 </tspan>
<tspan x="10" y="3210">  ├── signal-exit@3.0.2 </tspan>
<tspan x="10" y="3226">  ├─┬ strong-log-transformer@1.0.6 </tspan>
<tspan x="10" y="3242">  │ ├── byline@5.0.0 </tspan>
<tspan x="10" y="3258">  │ ├── duplexer@0.1.1 </tspan>
<tspan x="10" y="3274">  │ ├── minimist@0.1.0 </tspan>
<tspan x="10" y="3290">  │ └── moment@2.18.1 </tspan>
<tspan x="10" y="3306">  ├─┬ temp-write@3.2.0 </tspan>
<tspan x="10" y="3322">  │ ├── temp-dir@1.0.0 </tspan>
<tspan x="10" y="3338">  │ └── uuid@3.0.1 </tspan>
<tspan x="10" y="3354">  ├─┬ write-json-file@2.0.0 </tspan>
<tspan x="10" y="3370">  │ ├─┬ sort-keys@1.1.2 </tspan>
<tspan x="10" y="3386">  │ │ └── is-plain-obj@1.1.0 </tspan>
<tspan x="10" y="3402">  │ └─┬ write-file-atomic@1.3.1 </tspan>
<tspan x="10" y="3418">  │   ├── imurmurhash@0.1.4 </tspan>
<tspan x="10" y="3434">  │   └── slide@1.1.6 </tspan>
<tspan x="10" y="3450">  ├── write-pkg@2.1.0 </tspan>
<tspan x="10" y="3466">  └─┬ yargs@7.1.0 </tspan>
<tspan x="10" y="3482">    ├── camelcase@3.0.0 </tspan>
<tspan x="10" y="3498">    ├─┬ cliui@3.2.0 </tspan>
<tspan x="10" y="3514">    │ └─┬ wrap-ansi@2.1.0 </tspan>
<tspan x="10" y="3530">    │   └─┬ string-width@1.0.2 </tspan>
<tspan x="10" y="3546">    │     └── is-fullwidth-code-point@1.0.0 </tspan>
<tspan x="10" y="3562">    ├── decamelize@1.2.0 </tspan>
<tspan x="10" y="3578">    ├── get-caller-file@1.0.2 </tspan>
<tspan x="10" y="3594">    ├─┬ os-locale@1.4.0 </tspan>
<tspan x="10" y="3610">    │ └─┬ lcid@1.0.0 </tspan>
<tspan x="10" y="3626">    │   └── invert-kv@1.0.0 </tspan>
<tspan x="10" y="3642">    ├─┬ read-pkg-up@1.0.1 </tspan>
<tspan x="10" y="3658">    │ ├─┬ find-up@1.1.2 </tspan>
<tspan x="10" y="3674">    │ │ ├── path-exists@2.1.0 </tspan>
<tspan x="10" y="3690">    │ │ └─┬ pinkie-promise@2.0.1 </tspan>
<tspan x="10" y="3706">    │ │   └── pinkie@2.0.4 </tspan>
<tspan x="10" y="3722">    │ └─┬ read-pkg@1.1.0 </tspan>
<tspan x="10" y="3738">    │   ├─┬ load-json-file@1.1.0 </tspan>
<tspan x="10" y="3754">    │   │ └─┬ strip-bom@2.0.0 </tspan>
<tspan x="10" y="3770">    │   │   └── is-utf8@0.2.1 </tspan>
<tspan x="10" y="3786">    │   └── path-type@1.1.0 </tspan>
<tspan x="10" y="3802">    ├── require-directory@2.1.1 </tspan>
<tspan x="10" y="3818">    ├── require-main-filename@1.0.1 </tspan>
<tspan x="10" y="3834">    ├── set-blocking@2.0.0 </tspan>
<tspan x="10" y="3850">    ├─┬ string-width@1.0.2 </tspan>
<tspan x="10" y="3866">    │ ├── code-point-at@1.1.0 </tspan>
<tspan x="10" y="3882">    │ └── is-fullwidth-code-point@1.0.0 </tspan>
<tspan x="10" y="3898">    ├── which-module@1.0.0 </tspan>
<tspan x="10" y="3914">    ├── y18n@3.2.1 </tspan>
<tspan x="10" y="3930">    └─┬ yargs-parser@5.0.0 </tspan>
<tspan x="10" y="3946">      └── camelcase@3.0.0</tspan>
</text>
</svg>
